<?xml version="1.0" encoding="UTF-8" standalone="no"?>
<!-- Created with Inkscape (http://www.inkscape.org/) -->

<svg
   width="512"
   height="512"
   viewBox="0 0 512 512"
   version="1.1"
   id="svg1"
   inkscape:version="1.3.2 (091e20e, 2023-11-25, custom)"
   sodipodi:docname="icon.svg"
   xml:space="preserve"
   xmlns:inkscape="http://www.inkscape.org/namespaces/inkscape"
   xmlns:sodipodi="http://sodipodi.sourceforge.net/DTD/sodipodi-0.dtd"
   xmlns="http://www.w3.org/2000/svg"
   xmlns:svg="http://www.w3.org/2000/svg"><sodipodi:namedview
     id="namedview1"
     pagecolor="#505050"
     bordercolor="#ffffff"
     borderopacity="1"
     inkscape:showpageshadow="0"
     inkscape:pageopacity="0"
     inkscape:pagecheckerboard="1"
     inkscape:deskcolor="#d1d1d1"
     inkscape:document-units="px"
     inkscape:zoom="0.79394531"
     inkscape:cx="57.938499"
     inkscape:cy="261.35301"
     inkscape:window-width="1920"
     inkscape:window-height="1009"
     inkscape:window-x="-8"
     inkscape:window-y="-8"
     inkscape:window-maximized="1"
     inkscape:current-layer="g40"
     showguides="false"><sodipodi:guide
       position="256,512"
       orientation="1,0"
       id="guide2"
       inkscape:locked="false" /><sodipodi:guide
       position="270.76088,263.10156"
       orientation="0,-1"
       id="guide3"
       inkscape:locked="false" /></sodipodi:namedview><defs
     id="defs1" /><g
     inkscape:groupmode="layer"
     id="g40"
     inkscape:label="Warstwa 2 kopia"><path
       id="rect32"
       style="vector-effect:non-scaling-stroke;fill:#000000;fill-opacity:1;stroke:none;stroke-width:1;stroke-linecap:square;stroke-linejoin:bevel;stroke-dasharray:none;stroke-dashoffset:2.9178;stroke-opacity:1;-inkscape-stroke:hairline"
       d="m 267.80469,212.65234 v 58.65235 c 16.39364,0.35938 32.36912,4.33881 47.09375,10.77734 v -69.42969 z m -70.70313,36.2461 v 44.43164 c 4.72378,-3.18111 9.63125,-6.18135 14.83008,-8.84375 10.13503,-5.1903 21.02385,-8.98257 32.26367,-11.15039 v -24.4375 z m 141.40821,25.05078 v 21.02734 c 9.86643,6.42362 19.04192,13.63564 27.76953,21.0293 5.05362,4.28123 9.58468,8.18563 14.12109,10.88086 1.70008,1.01007 3.44854,1.81205 5.20117,2.49609 v -55.43359 z m -212.11133,15.38476 v 63.32618 l 41.4414,-36.12305 c 1.84896,-1.61167 3.76366,-3.22682 5.65039,-4.84375 v -22.35938 z" /><path
       id="path36"
       style="fill:#000000;fill-opacity:1;fill-rule:nonzero;stroke:none;stroke-width:1;stroke-linecap:butt;stroke-linejoin:miter;stroke-dasharray:none;stroke-opacity:1;paint-order:normal"
       d="m 512,176.84886 -85.91016,105.4414 c -4.10944,5.04376 -8.41937,10.06262 -13.88867,13.58594 -5.46929,3.52332 -11.98779,5.43732 -18.49023,5.22461 -6.50244,-0.2127 -12.82476,-2.47768 -18.41797,-5.80078 -5.59321,-3.3231 -10.51445,-7.6423 -15.47852,-11.84766 -13.28294,-11.25275 -27.30251,-21.81771 -42.88672,-29.57617 -15.5842,-7.75846 -32.77068,-12.56305 -50.17773,-12.79883 -17.40705,-0.23577 -34.76481,4.1898 -50.25977,12.125 -15.49495,7.93521 -28.95706,19.25059 -42.08007,30.68946 L 0,435.91917 v 9.83203 L 171.48047,321.83909 c 13.53183,-9.77797 27.90013,-19.5738 44.57422,-24.98242 16.67269,-5.40816 34.64714,-6.07064 51.69922,-2.5293 17.00863,3.53234 32.54487,10.87442 47.52734,18.06641 14.94969,7.17626 29.76048,14.15591 45.1582,16.09766 11.64199,1.46811 23.71156,-0.19536 34.17969,-5.14844 10.42515,-4.93275 19.29166,-13.39247 27.82617,-22.47656 L 508.35547,209.42308 512,205.2766 Z m 0,43.30078 -82.26562,87.56445 c -8.75712,9.32104 -18.43568,18.79976 -30.8379,24.66797 -12.35922,5.84789 -26.2957,7.72275 -39.70898,6.03125 -17.52148,-2.20956 -33.27191,-9.82151 -48.23438,-17.00391 -14.92967,-7.16666 -29.7543,-14.07653 -45.23242,-17.29101 -15.43467,-3.20545 -31.69171,-2.57938 -46.58008,2.25 -14.88697,4.82892 -28.44098,13.9211 -41.80273,23.57617 L 2.9277344,455.96995 0,458.2936 v 13.01424 L 172.87109,367.57151 c 14.27006,-8.56315 29.09738,-16.74141 45.37305,-20.21484 16.27567,-3.47343 33.36689,-2.15543 49.32227,2.57617 15.95538,4.7316 30.75876,12.62574 46.16797,18.91211 7.7046,3.14319 15.62944,5.85338 23.82812,7.27539 8.19868,1.42202 16.71298,1.52066 24.76758,-0.56836 7.33383,-1.90208 14.12215,-5.56627 20.27148,-9.99218 6.14934,-4.42592 11.71437,-9.60997 17.08399,-14.95508 10.73923,-10.69023 21.13757,-21.71896 32.02539,-32.25782 L 512,240.63206 Z"
       transform="translate(0,40.184345)"
       sodipodi:nodetypes="ccsssssssscccsssssccccccssssscccccsssssssccc" /><path
       id="path56"
       style="color:#000000;fill:#000000;stroke-linecap:round;stroke-linejoin:bevel;stroke-dashoffset:2.9178;-inkscape-stroke:none"
       d="m 256,96.109375 c -59.80223,0.0021 -110.83623,42.652935 -122.12891,100.812505 -37.317861,14.87057 -63.582028,51.27451 -63.582028,93.86328 0,31.51513 14.427669,59.62249 37.007818,78.13281 5.31332,-4.31389 10.50564,-8.76582 15.66406,-13.26172 -19.79433,-14.74068 -32.671877,-38.08978 -32.671878,-64.87109 0,-36.10866 23.197768,-66.31274 55.478518,-76.98243 l 6.75976,-8.0664 c 7.42862,-51.51574 51.4241,-89.62514 103.47266,-89.62695 52.04535,0.004 96.03687,38.11076 103.4668,89.62304 l 6.76172,8.06641 c 32.28381,10.66767 55.48242,40.87501 55.48242,76.98633 0,7.92063 -1.26722,15.50242 -3.41406,22.74609 l 23.19335,-28.45898 C 439.25562,244.96632 413.7602,211.11382 378.12305,196.91602 366.82848,138.76127 315.79789,96.114353 256,96.109375 Z"
       sodipodi:nodetypes="ccsccscccccscccc" /></g></svg>
