<?xml version="1.0" encoding="UTF-8" standalone="no"?>
<!-- Created with Inkscape (http://www.inkscape.org/) -->

<svg
   width="512"
   height="512"
   viewBox="0 0 512 512"
   version="1.1"
   id="svg1"
   inkscape:version="1.3.2 (091e20e, 2023-11-25, custom)"
   sodipodi:docname="icon.svg"
   xml:space="preserve"
   inkscape:export-filename="..\..\Projects\android\Demo\images\icon-bg.svg"
   inkscape:export-xdpi="96"
   inkscape:export-ydpi="96"
   xmlns:inkscape="http://www.inkscape.org/namespaces/inkscape"
   xmlns:sodipodi="http://sodipodi.sourceforge.net/DTD/sodipodi-0.dtd"
   xmlns:xlink="http://www.w3.org/1999/xlink"
   xmlns="http://www.w3.org/2000/svg"
   xmlns:svg="http://www.w3.org/2000/svg"><sodipodi:namedview
     id="namedview1"
     pagecolor="#505050"
     bordercolor="#ffffff"
     borderopacity="1"
     inkscape:showpageshadow="0"
     inkscape:pageopacity="0"
     inkscape:pagecheckerboard="1"
     inkscape:deskcolor="#d1d1d1"
     inkscape:document-units="px"
     inkscape:zoom="0.70710678"
     inkscape:cx="237.58788"
     inkscape:cy="225.56706"
     inkscape:window-width="1920"
     inkscape:window-height="1009"
     inkscape:window-x="-8"
     inkscape:window-y="-8"
     inkscape:window-maximized="1"
     inkscape:current-layer="layer2"
     showguides="false"><sodipodi:guide
       position="256,512"
       orientation="1,0"
       id="guide2"
       inkscape:locked="false" /><sodipodi:guide
       position="270.76088,263.10156"
       orientation="0,-1"
       id="guide3"
       inkscape:locked="false" /></sodipodi:namedview><defs
     id="defs1"><inkscape:path-effect
       effect="spiro"
       id="path-effect53"
       is_visible="true"
       lpeversion="1" /><inkscape:path-effect
       effect="spiro"
       id="path-effect51"
       is_visible="true"
       lpeversion="1" /><inkscape:path-effect
       effect="spiro"
       id="path-effect49"
       is_visible="true"
       lpeversion="1" /><inkscape:path-effect
       effect="interpolate"
       id="path-effect47"
       is_visible="true"
       lpeversion="1"
       trajectory="M 0,0 V 0"
       equidistant_spacing="true"
       steps="5" /><inkscape:path-effect
       effect="spiro"
       id="path-effect45"
       is_visible="true"
       lpeversion="1" /><inkscape:path-effect
       effect="spiro"
       id="path-effect43"
       is_visible="true"
       lpeversion="1" /><inkscape:path-effect
       effect="spiro"
       id="path-effect41"
       is_visible="true"
       lpeversion="1" /><linearGradient
       id="linearGradient30"
       inkscape:collect="always"><stop
         style="stop-color:#ad89ff;stop-opacity:1;"
         offset="0"
         id="stop30" /><stop
         style="stop-color:#a26eff;stop-opacity:1;"
         offset="1"
         id="stop31" /></linearGradient><linearGradient
       id="linearGradient23"
       inkscape:collect="always"><stop
         style="stop-color:#592fff;stop-opacity:1;"
         offset="0"
         id="stop23" /><stop
         style="stop-color:#4400c4;stop-opacity:1;"
         offset="1"
         id="stop24" /></linearGradient><inkscape:path-effect
       effect="spiro"
       id="path-effect20"
       is_visible="true"
       lpeversion="1" /><inkscape:path-effect
       effect="interpolate"
       id="path-effect18"
       is_visible="true"
       lpeversion="1"
       trajectory="m 640,-160 v -280 h 160 v 280 z m -240,0 v -640 h 160 v 640 z m -240,0 v -440 h 160 v 440 z"
       equidistant_spacing="true"
       steps="5" /><inkscape:path-effect
       effect="interpolate"
       id="path-effect17"
       is_visible="true"
       lpeversion="1"
       trajectory="M 0,0 V 0"
       equidistant_spacing="true"
       steps="5" /><linearGradient
       id="linearGradient16"
       inkscape:collect="always"><stop
         style="stop-color:#a4a4a4;stop-opacity:1;"
         offset="0"
         id="stop17" /><stop
         style="stop-color:#fbfbfb;stop-opacity:1;"
         offset="1"
         id="stop16" /></linearGradient><inkscape:path-effect
       effect="taper_stroke"
       start_shape="center | center"
       end_shape="center | center"
       id="path-effect16"
       is_visible="true"
       lpeversion="1"
       stroke_width="10"
       subpath="1"
       attach_start="0.16334618"
       end_offset="0.2"
       start_smoothing="0.5"
       end_smoothing="0.5"
       jointype="extrapolated"
       miter_limit="100" /><inkscape:path-effect
       effect="interpolate"
       id="path-effect15"
       is_visible="true"
       lpeversion="1"
       trajectory="m 0,-40.184345 v 0"
       equidistant_spacing="true"
       steps="5" /><inkscape:path-effect
       effect="spiro"
       id="path-effect14"
       is_visible="true"
       lpeversion="1" /><inkscape:path-effect
       effect="spiro"
       id="path-effect12"
       is_visible="true"
       lpeversion="1" /><inkscape:path-effect
       effect="powerstroke"
       id="path-effect10"
       is_visible="false"
       lpeversion="1.3"
       scale_width="0.71942446"
       interpolator_type="SpiroInterpolator"
       interpolator_beta="0.12589928"
       start_linecap_type="square"
       end_linecap_type="square"
       offset_points="0.2,10 | 6.8835881,53.948077 | 5.1937053,21.103256 | 2.8531989,34.653257 | 9.8,10"
       linejoin_type="round"
       miter_limit="4"
       not_jump="false"
       sort_points="true"
       message="&lt;b&gt;Ctrl+kliknij&lt;/b&gt; istniejący węzeł i przesuń go" /><inkscape:path-effect
       effect="taper_stroke"
       start_shape="center | center"
       end_shape="center | center"
       id="path-effect9"
       is_visible="true"
       lpeversion="1"
       stroke_width="20"
       subpath="1"
       attach_start="0.2"
       end_offset="0.2"
       start_smoothing="0.5"
       end_smoothing="0.5"
       jointype="extrapolated"
       miter_limit="100" /><inkscape:path-effect
       effect="spiro"
       id="path-effect8"
       is_visible="true"
       lpeversion="1" /><inkscape:path-effect
       effect="spiro"
       id="path-effect6"
       is_visible="true"
       lpeversion="1" /><linearGradient
       inkscape:collect="always"
       xlink:href="#linearGradient1"
       id="linearGradient2"
       x1="41.280441"
       y1="128.95572"
       x2="91.328415"
       y2="78.907745"
       gradientUnits="userSpaceOnUse"
       gradientTransform="matrix(10.230185,0,0,10.22004,-422.30657,-806.44033)" /><linearGradient
       id="linearGradient1"
       inkscape:collect="always"><stop
         style="stop-color:#344bb1;stop-opacity:1;"
         offset="0"
         id="stop1" /><stop
         style="stop-color:#5980f1;stop-opacity:1;"
         offset="1"
         id="stop2" /></linearGradient><radialGradient
       inkscape:collect="always"
       xlink:href="#linearGradient16"
       id="radialGradient17"
       cx="256"
       cy="419.71112"
       fx="256"
       fy="419.71112"
       r="175.71111"
       gradientTransform="matrix(1.3628152,-3.0195044e-8,3.4132467e-8,1.4619971,-92.880707,-231.72538)"
       gradientUnits="userSpaceOnUse" /><linearGradient
       inkscape:collect="always"
       xlink:href="#linearGradient23"
       id="linearGradient24"
       x1="135.90968"
       y1="309.27127"
       x2="168.25168"
       y2="370.42538"
       gradientUnits="userSpaceOnUse"
       gradientTransform="matrix(1,0,0,0.86118511,-3.0829765,53.749163)" /><linearGradient
       inkscape:collect="always"
       xlink:href="#linearGradient23"
       id="linearGradient26"
       x1="197.63187"
       y1="242.96037"
       x2="221.97331"
       y2="301.98145"
       gradientUnits="userSpaceOnUse"
       gradientTransform="matrix(1,0,0,0.80838826,8.7546735,73.451965)" /><linearGradient
       inkscape:collect="always"
       xlink:href="#linearGradient23"
       id="linearGradient28"
       x1="274.5553"
       y1="281.62189"
       x2="263.62744"
       y2="326.9895"
       gradientUnits="userSpaceOnUse"
       gradientTransform="matrix(1,0,0,1.2339824,20.592336,-94.484001)" /><radialGradient
       inkscape:collect="always"
       xlink:href="#linearGradient30"
       id="radialGradient31"
       cx="278.22699"
       cy="380.78925"
       fx="278.22699"
       fy="380.78925"
       r="256"
       gradientTransform="matrix(0.93709927,-0.7229928,0.29547054,0.38297094,-78.930739,388.32194)"
       gradientUnits="userSpaceOnUse" /><linearGradient
       inkscape:collect="always"
       xlink:href="#linearGradient23"
       id="linearGradient31"
       gradientUnits="userSpaceOnUse"
       gradientTransform="matrix(1,0,0,0.86851302,91.295661,57.778194)"
       x1="282.11249"
       y1="280.20816"
       x2="247.21317"
       y2="336.93912" /></defs><g
     inkscape:label="Warstwa 1"
     inkscape:groupmode="layer"
     id="layer1"
     style="display:inline"><rect
       style="display:inline;fill:#000000;fill-opacity:1;stroke:none;stroke-width:40;stroke-linecap:square;stroke-linejoin:miter;stroke-dasharray:none;stroke-dashoffset:2.9178;stroke-opacity:1;paint-order:normal"
       id="rect57"
       width="512"
       height="511.49225"
       x="0"
       y="0"
       ry="123.39076" /><rect
       style="display:inline;vector-effect:non-scaling-stroke;fill:url(#linearGradient2);stroke-width:2.70539;stroke-linecap:round;stroke-linejoin:bevel;stroke-dashoffset:2.9178;-inkscape-stroke:hairline"
       id="rect1"
       width="512"
       height="511.49225"
       x="0"
       y="-1.1368684e-13"
       ry="0.69999999" /></g><g
     inkscape:groupmode="layer"
     id="layer2"
     inkscape:label="Warstwa 2"
     style="display:inline"><path
       id="rect2"
       style="display:inline;vector-effect:non-scaling-stroke;fill:url(#radialGradient17);stroke-width:1.27149;stroke-linecap:round;stroke-linejoin:bevel;stroke-dashoffset:2.9178;-inkscape-stroke:hairline"
       d="m 256,106.10894 a 114.54802,114.54802 0 0 0 -113.3719,98.2002 c -36.28547,11.99336 -62.339211,46.06932 -62.339211,86.47671 0,50.472 40.633201,91.10521 91.105221,91.10521 h 169.21178 c 50.47202,0 91.10522,-40.63321 91.10522,-91.10521 0,-40.4101 -26.05656,-74.48992 -62.34583,-86.48113 A 114.54802,114.54802 0 0 0 256,106.10894 Z" /><rect
       style="display:inline;fill:url(#linearGradient26);stroke:none;stroke-width:10.8397;stroke-linecap:square;stroke-linejoin:bevel;stroke-dasharray:none;stroke-dashoffset:2.9178;stroke-opacity:1"
       id="rect22"
       width="47.093403"
       height="126.22897"
       x="197.10216"
       y="248.89844" /><rect
       style="display:inline;fill:url(#linearGradient28);stroke:none;stroke-width:11.9482;stroke-linecap:square;stroke-linejoin:bevel;stroke-dasharray:none;stroke-dashoffset:2.9178;stroke-opacity:1"
       id="rect23"
       width="47.093403"
       height="153.36299"
       x="267.80548"
       y="212.65227" /><rect
       style="display:inline;fill:url(#linearGradient31);stroke:none;stroke-width:10.0239;stroke-linecap:square;stroke-linejoin:bevel;stroke-dasharray:none;stroke-dashoffset:2.9178;stroke-opacity:1"
       id="rect31"
       width="47.093403"
       height="107.94135"
       x="338.50882"
       y="273.94971" /><rect
       style="display:inline;fill:url(#linearGradient24);fill-opacity:1;stroke:none;stroke-width:8.93664;stroke-linecap:square;stroke-linejoin:bevel;stroke-dasharray:none;stroke-dashoffset:2.9178;stroke-opacity:1"
       id="rect20"
       width="47.093403"
       height="85.79364"
       x="126.39777"
       y="289.33377" /><path
       style="display:none;fill:none;stroke:#000000;stroke-width:20;stroke-linecap:butt;stroke-linejoin:miter;stroke-dasharray:none;stroke-opacity:1"
       d="m 126.58302,422.57319 58.88315,-69.2743 c 6.89347,-8.10996 14.12787,-16.16524 23.2191,-21.70066 9.09123,-5.53543 19.82893,-8.36328 30.45893,-7.82058 10.63,0.5427 20.89429,4.31515 30.17402,9.52839 9.27974,5.21324 17.70504,11.79718 26.57179,17.68548 11.20413,7.44053 23.28366,13.7618 36.26115,17.29433 12.97749,3.53252 26.83058,4.13929 39.91135,1.01081 13.08077,-3.12848 25.15141,-9.99244 34.99966,-19.15246 9.84824,-9.16003 17.3898,-20.47436 24.64894,-31.79686 l 40.13521,-62.60122"
       id="path6"
       inkscape:path-effect="#path-effect6"
       inkscape:original-d="m 126.58302,422.57319 58.88315,-69.2743 c 24.14822,-28.40967 86.17783,-3.98674 110.42384,-2.30737 24.246,1.67938 128.524,-21.26247 135.8211,-32.64418 l 40.13521,-62.60122"
       sodipodi:nodetypes="csssc" /><path
       id="path12"
       style="display:inline;fill:#9c64ff;fill-opacity:1;fill-rule:nonzero;stroke:none;stroke-width:5;stroke-linecap:butt;stroke-linejoin:miter;stroke-dasharray:none;stroke-opacity:1"
       transform="translate(0,40.184345)"
       inkscape:path-effect="#path-effect14"
       inkscape:original-d="m 512,240.63173 -80.28889,77.71561 c -9.71451,9.40316 -45.13476,58.88444 -69.38076,57.20506 -24.24601,-1.67937 -157.48813,-27.16584 -189.45951,-7.98052 L 0,471.3079 V 435.91898 L 174.40978,283.89212 c 28.10698,-24.49986 161.15797,-2.11815 185.40398,-0.43878 24.246,1.67938 57.73608,9.3188 66.27596,-1.16268 L 512,176.8481 Z"
       d="m 512,240.63173 -80.28889,77.71561 c -10.88783,10.53887 -21.28655,21.56808 -32.0258,32.25832 -5.36962,5.34512 -10.93504,10.52903 -17.08438,14.95495 -6.14934,4.42592 -12.93674,8.08971 -20.27058,9.99179 -8.05461,2.08902 -16.56949,1.99072 -24.76818,0.56871 -8.19869,-1.42202 -16.12356,-4.13325 -23.82817,-7.27644 -15.40923,-6.28637 -30.21196,-14.18027 -46.16736,-18.91188 -15.9554,-4.7316 -33.04758,-6.04915 -49.32327,-2.57571 -16.27568,3.47343 -31.10246,11.65164 -45.37253,20.2148 L 0,471.3079 V 435.91898 L 174.40978,283.89212 c 13.12303,-11.43888 26.58607,-22.75478 42.08104,-30.68999 15.49497,-7.93522 32.85278,-12.36012 50.25986,-12.12435 17.40707,0.23577 34.59266,5.03989 50.17688,12.79836 15.58422,7.75847 29.60324,18.32443 42.8862,29.5772 4.96407,4.20536 9.88674,8.52307 15.47996,11.84617 5.59321,3.3231 11.91392,5.58801 18.41636,5.80072 6.50245,0.2127 13.02218,-1.6998 18.49148,-5.22313 5.46931,-3.52332 9.77871,-8.54268 13.88816,-13.58644 L 512,176.8481 Z"
       sodipodi:nodetypes="csssccssscc" /><path
       style="display:none;fill:none;fill-opacity:1;fill-rule:nonzero;stroke:#6a38cd;stroke-width:10;stroke-linecap:square;stroke-linejoin:miter;stroke-dasharray:none;stroke-opacity:1"
       d="M 0,493.79778 195.70835,353.29889 c 9.8729,-7.08775 20.13277,-13.98704 31.74623,-17.57007 11.61345,-3.58302 24.22739,-3.71961 35.96602,-0.57079 11.73863,3.14882 22.41432,9.35482 32.51557,16.11317 10.10124,6.75835 19.93369,14.13061 31.12568,18.86874 18.82832,7.97098 40.79372,7.49077 59.76714,-0.12841 18.97341,-7.61917 34.31659,-21.97969 48.66072,-36.5498 12.75171,-12.9526 25.50342,-25.90521 38.25514,-38.85781 12.75171,-12.9526 25.50343,-25.9052 38.25515,-38.8578"
       id="path7"
       inkscape:path-effect="#path-effect8;#path-effect17"
       inkscape:original-d="M 0,493.79778 195.70835,353.29889 c 30.28901,-21.74446 107.10749,15.16168 131.3535,16.84105 24.246,1.67938 98.94276,-27.04369 108.42786,-36.67821 L 473.74485,294.60392 512,255.74612"
       sodipodi:nodetypes="cssscc"
       transform="translate(-0.04661833,2.7573642)" /><path
       id="path18"
       style="display:inline;fill:url(#radialGradient31);fill-rule:nonzero;stroke:none;stroke-width:5;stroke-linecap:butt;stroke-linejoin:miter;stroke-dasharray:none;stroke-opacity:1"
       transform="translate(0,40.184345)"
       d="m 512,240.63173 -80.28889,77.71561 c -10.88783,10.53887 -21.28655,21.56808 -32.0258,32.25832 -5.36962,5.34512 -10.93504,10.52903 -17.08438,14.95495 -6.14934,4.42592 -12.93674,8.08971 -20.27058,9.99179 -8.05461,2.08902 -16.56949,1.99072 -24.76818,0.56871 -8.19869,-1.42202 -16.12356,-4.13325 -23.82817,-7.27644 -15.40923,-6.28637 -30.21196,-14.18027 -46.16736,-18.91188 -15.9554,-4.7316 -33.04758,-6.04915 -49.32327,-2.57571 -16.27568,3.47343 -31.10246,11.65164 -45.37253,20.2148 L 0,471.3079 V 451.91898 L 174.40978,325.89212 c 13.44682,-9.71654 27.4074,-19.16009 43.18796,-24.27887 15.78056,-5.11878 32.89548,-5.76286 49.13888,-2.38946 16.2434,3.37341 31.42467,10.49922 46.38078,17.67856 14.9561,7.17934 30.23672,14.47533 46.69636,16.55099 12.52765,1.57981 25.53019,-0.18875 36.94389,-5.58924 11.4137,-5.40049 20.68624,-14.37085 29.33207,-23.57344 L 512,212.8481 Z"
       sodipodi:nodetypes="csssccssscc"
       inkscape:original-d="m 512,240.63173 -80.28889,77.71561 c -9.71451,9.40316 -45.13476,58.88444 -69.38076,57.20506 -24.24601,-1.67937 -157.48813,-27.16584 -189.45951,-7.98052 L 0,471.3079 V 451.91898 L 174.40978,325.89212 c 30.2217,-21.83791 161.15797,5.88185 185.40398,7.56122 24.246,1.67938 57.01858,-19.30916 66.27596,-29.16268 L 512,212.8481 Z"
       inkscape:path-effect="#path-effect20" /></g><g
     inkscape:groupmode="layer"
     id="g40"
     inkscape:label="Warstwa 2 kopia"
     style="display:none"><path
       id="rect32"
       style="vector-effect:non-scaling-stroke;fill:#000000;fill-opacity:1;stroke:none;stroke-width:1;stroke-linecap:square;stroke-linejoin:bevel;stroke-dasharray:none;stroke-dashoffset:2.9178;stroke-opacity:1;-inkscape-stroke:hairline"
       d="m 267.80469,212.65234 v 58.65235 c 16.39364,0.35938 32.36912,4.33881 47.09375,10.77734 v -69.42969 z m -70.70313,36.2461 v 44.43164 c 4.72378,-3.18111 9.63125,-6.18135 14.83008,-8.84375 10.13503,-5.1903 21.02385,-8.98257 32.26367,-11.15039 v -24.4375 z m 141.40821,25.05078 v 21.02734 c 9.86643,6.42362 19.04192,13.63564 27.76953,21.0293 5.05362,4.28123 9.58468,8.18563 14.12109,10.88086 1.70008,1.01007 3.44854,1.81205 5.20117,2.49609 v -55.43359 z m -212.11133,15.38476 v 63.32618 l 41.4414,-36.12305 c 1.84896,-1.61167 3.76366,-3.22682 5.65039,-4.84375 v -22.35938 z" /><path
       style="display:none;fill:none;stroke:#000000;stroke-width:20;stroke-linecap:butt;stroke-linejoin:miter;stroke-dasharray:none;stroke-opacity:1"
       d="m 126.58302,422.57319 58.88315,-69.2743 c 6.89347,-8.10996 14.12787,-16.16524 23.2191,-21.70066 9.09123,-5.53543 19.82893,-8.36328 30.45893,-7.82058 10.63,0.5427 20.89429,4.31515 30.17402,9.52839 9.27974,5.21324 17.70504,11.79718 26.57179,17.68548 11.20413,7.44053 23.28366,13.7618 36.26115,17.29433 12.97749,3.53252 26.83058,4.13929 39.91135,1.01081 13.08077,-3.12848 25.15141,-9.99244 34.99966,-19.15246 9.84824,-9.16003 17.3898,-20.47436 24.64894,-31.79686 l 40.13521,-62.60122"
       id="path35"
       inkscape:path-effect="#path-effect41"
       inkscape:original-d="m 126.58302,422.57319 58.88315,-69.2743 c 24.14822,-28.40967 86.17783,-3.98674 110.42384,-2.30737 24.246,1.67938 128.524,-21.26247 135.8211,-32.64418 l 40.13521,-62.60122"
       sodipodi:nodetypes="csssc" /><path
       id="path36"
       style="fill:#000000;fill-opacity:1;fill-rule:nonzero;stroke:none;stroke-width:1;stroke-linecap:butt;stroke-linejoin:miter;stroke-dasharray:none;stroke-opacity:1;paint-order:normal"
       d="m 512,176.84886 -85.91016,105.4414 c -4.10944,5.04376 -8.41937,10.06262 -13.88867,13.58594 -5.46929,3.52332 -11.98779,5.43732 -18.49023,5.22461 -6.50244,-0.2127 -12.82476,-2.47768 -18.41797,-5.80078 -5.59321,-3.3231 -10.51445,-7.6423 -15.47852,-11.84766 -13.28294,-11.25275 -27.30251,-21.81771 -42.88672,-29.57617 -15.5842,-7.75846 -32.77068,-12.56305 -50.17773,-12.79883 -17.40705,-0.23577 -34.76481,4.1898 -50.25977,12.125 -15.49495,7.93521 -28.95706,19.25059 -42.08007,30.68946 L 0,435.91917 v 9.83203 L 171.48047,321.83909 c 13.53183,-9.77797 27.90013,-19.5738 44.57422,-24.98242 16.67269,-5.40816 34.64714,-6.07064 51.69922,-2.5293 17.00863,3.53234 32.54487,10.87442 47.52734,18.06641 14.94969,7.17626 29.76048,14.15591 45.1582,16.09766 11.64199,1.46811 23.71156,-0.19536 34.17969,-5.14844 10.42515,-4.93275 19.29166,-13.39247 27.82617,-22.47656 L 508.35547,209.42308 512,205.2766 Z m 0,43.30078 -82.26562,87.56445 c -8.75712,9.32104 -18.43568,18.79976 -30.8379,24.66797 -12.35922,5.84789 -26.2957,7.72275 -39.70898,6.03125 -17.52148,-2.20956 -33.27191,-9.82151 -48.23438,-17.00391 -14.92967,-7.16666 -29.7543,-14.07653 -45.23242,-17.29101 -15.43467,-3.20545 -31.69171,-2.57938 -46.58008,2.25 -14.88697,4.82892 -28.44098,13.9211 -41.80273,23.57617 L 2.9277344,455.96995 0,458.2936 v 13.01424 L 172.87109,367.57151 c 14.27006,-8.56315 29.09738,-16.74141 45.37305,-20.21484 16.27567,-3.47343 33.36689,-2.15543 49.32227,2.57617 15.95538,4.7316 30.75876,12.62574 46.16797,18.91211 7.7046,3.14319 15.62944,5.85338 23.82812,7.27539 8.19868,1.42202 16.71298,1.52066 24.76758,-0.56836 7.33383,-1.90208 14.12215,-5.56627 20.27148,-9.99218 6.14934,-4.42592 11.71437,-9.60997 17.08399,-14.95508 10.73923,-10.69023 21.13757,-21.71896 32.02539,-32.25782 L 512,240.63206 Z"
       transform="translate(0,40.184345)"
       sodipodi:nodetypes="ccsssssssscccsssssccccccssssscccccsssssssccc" /><path
       style="display:none;fill:none;fill-opacity:1;fill-rule:nonzero;stroke:#6a38cd;stroke-width:10;stroke-linecap:square;stroke-linejoin:miter;stroke-dasharray:none;stroke-opacity:1"
       d="M 0,493.79778 195.70835,353.29889 c 9.8729,-7.08775 20.13277,-13.98704 31.74623,-17.57007 11.61345,-3.58302 24.22739,-3.71961 35.96602,-0.57079 11.73863,3.14882 22.41432,9.35482 32.51557,16.11317 10.10124,6.75835 19.93369,14.13061 31.12568,18.86874 18.82832,7.97098 40.79372,7.49077 59.76714,-0.12841 18.97341,-7.61917 34.31659,-21.97969 48.66072,-36.5498 12.75171,-12.9526 25.50342,-25.90521 38.25514,-38.85781 12.75171,-12.9526 25.50343,-25.9052 38.25515,-38.8578"
       id="path37"
       inkscape:path-effect="#path-effect45;#path-effect47"
       inkscape:original-d="M 0,493.79778 195.70835,353.29889 c 30.28901,-21.74446 107.10749,15.16168 131.3535,16.84105 24.246,1.67938 98.94276,-27.04369 108.42786,-36.67821 L 473.74485,294.60392 512,255.74612"
       sodipodi:nodetypes="cssscc"
       transform="translate(-0.04661833,2.7573642)" /><path
       id="path56"
       style="color:#000000;fill:#000000;stroke-linecap:round;stroke-linejoin:bevel;stroke-dashoffset:2.9178;-inkscape-stroke:none"
       d="m 256,96.109375 c -59.80223,0.0021 -110.83623,42.652935 -122.12891,100.812505 -37.317861,14.87057 -63.582028,51.27451 -63.582028,93.86328 0,31.51513 14.427669,59.62249 37.007818,78.13281 5.31332,-4.31389 10.50564,-8.76582 15.66406,-13.26172 -19.79433,-14.74068 -32.671877,-38.08978 -32.671878,-64.87109 0,-36.10866 23.197768,-66.31274 55.478518,-76.98243 l 6.75976,-8.0664 c 7.42862,-51.51574 51.4241,-89.62514 103.47266,-89.62695 52.04535,0.004 96.03687,38.11076 103.4668,89.62304 l 6.76172,8.06641 c 32.28381,10.66767 55.48242,40.87501 55.48242,76.98633 0,7.92063 -1.26722,15.50242 -3.41406,22.74609 l 23.19335,-28.45898 C 439.25562,244.96632 413.7602,211.11382 378.12305,196.91602 366.82848,138.76127 315.79789,96.114353 256,96.109375 Z"
       sodipodi:nodetypes="ccsccscccccscccc" /></g><g
     inkscape:groupmode="layer"
     id="layer3"
     inkscape:label="Warstwa 3"
     sodipodi:insensitive="true"
     style="display:none"><circle
       style="display:none;vector-effect:non-scaling-stroke;fill:none;fill-opacity:1;stroke:#000000;stroke-width:0.83633;stroke-linecap:round;stroke-linejoin:bevel;stroke-dashoffset:2.9178;stroke-opacity:1;-inkscape-stroke:hairline"
       id="path3"
       cx="181"
       cy="297.45303"
       r="80.558968" /><circle
       style="display:none;vector-effect:non-scaling-stroke;fill:none;fill-opacity:1;stroke:#000000;stroke-width:0.83633;stroke-linecap:round;stroke-linejoin:bevel;stroke-dashoffset:2.9178;stroke-opacity:1;-inkscape-stroke:hairline"
       id="circle3"
       cx="331"
       cy="297.45303"
       r="80.558968" /><circle
       style="display:none;vector-effect:non-scaling-stroke;fill:none;fill-opacity:1;stroke:#000000;stroke-width:1.0528;stroke-linecap:round;stroke-linejoin:bevel;stroke-dashoffset:2.9178;stroke-opacity:1;-inkscape-stroke:hairline"
       id="circle4"
       cx="256"
       cy="235.39838"
       r="101.41037" /><circle
       style="display:inline;vector-effect:non-scaling-stroke;fill:none;fill-opacity:1;stroke:#000000;stroke-linecap:round;stroke-linejoin:bevel;stroke-dashoffset:2.9178;stroke-opacity:1;-inkscape-stroke:hairline"
       id="path5"
       cx="256"
       cy="256"
       r="256" /></g></svg>
