<?xml version="1.0" encoding="UTF-8" standalone="no"?>
<!-- Created with Inkscape (http://www.inkscape.org/) -->

<svg
   width="512"
   height="512"
   viewBox="0 0 512 512"
   version="1.1"
   id="svg1"
   inkscape:version="1.3.2 (091e20e, 2023-11-25, custom)"
   sodipodi:docname="icon.svg"
   xml:space="preserve"
   inkscape:export-filename="..\..\Projects\android\Demo\images\icon-mono.svg"
   inkscape:export-xdpi="96"
   inkscape:export-ydpi="96"
   xmlns:inkscape="http://www.inkscape.org/namespaces/inkscape"
   xmlns:sodipodi="http://sodipodi.sourceforge.net/DTD/sodipodi-0.dtd"
   xmlns:xlink="http://www.w3.org/1999/xlink"
   xmlns="http://www.w3.org/2000/svg"
   xmlns:svg="http://www.w3.org/2000/svg"><sodipodi:namedview
     id="namedview1"
     pagecolor="#505050"
     bordercolor="#ffffff"
     borderopacity="1"
     inkscape:showpageshadow="0"
     inkscape:pageopacity="0"
     inkscape:pagecheckerboard="1"
     inkscape:deskcolor="#d1d1d1"
     inkscape:document-units="px"
     inkscape:zoom="0.79394531"
     inkscape:cx="57.938499"
     inkscape:cy="261.35301"
     inkscape:window-width="1920"
     inkscape:window-height="1009"
     inkscape:window-x="-8"
     inkscape:window-y="-8"
     inkscape:window-maximized="1"
     inkscape:current-layer="g40"
     showguides="false"><sodipodi:guide
       position="256,512"
       orientation="1,0"
       id="guide2"
       inkscape:locked="false" /><sodipodi:guide
       position="270.76088,263.10156"
       orientation="0,-1"
       id="guide3"
       inkscape:locked="false" /></sodipodi:namedview><defs
     id="defs1"><linearGradient
       id="linearGradient30"
       inkscape:collect="always"><stop
         style="stop-color:#ad89ff;stop-opacity:1;"
         offset="0"
         id="stop30" /><stop
         style="stop-color:#a26eff;stop-opacity:1;"
         offset="1"
         id="stop31" /></linearGradient><linearGradient
       id="linearGradient23"
       inkscape:collect="always"><stop
         style="stop-color:#592fff;stop-opacity:1;"
         offset="0"
         id="stop23" /><stop
         style="stop-color:#4400c4;stop-opacity:1;"
         offset="1"
         id="stop24" /></linearGradient><inkscape:path-effect
       effect="spiro"
       id="path-effect20"
       is_visible="true"
       lpeversion="1" /><inkscape:path-effect
       effect="spiro"
       id="path-effect14"
       is_visible="true"
       lpeversion="1" /><linearGradient
       inkscape:collect="always"
       xlink:href="#linearGradient23"
       id="linearGradient24"
       x1="135.90968"
       y1="309.27127"
       x2="168.25168"
       y2="370.42538"
       gradientUnits="userSpaceOnUse"
       gradientTransform="matrix(1,0,0,0.86118511,-3.0829765,53.749163)" /><linearGradient
       inkscape:collect="always"
       xlink:href="#linearGradient23"
       id="linearGradient26"
       x1="197.63187"
       y1="242.96037"
       x2="221.97331"
       y2="301.98145"
       gradientUnits="userSpaceOnUse"
       gradientTransform="matrix(1,0,0,0.80838826,8.7546735,73.451965)" /><linearGradient
       inkscape:collect="always"
       xlink:href="#linearGradient23"
       id="linearGradient28"
       x1="274.5553"
       y1="281.62189"
       x2="263.62744"
       y2="326.9895"
       gradientUnits="userSpaceOnUse"
       gradientTransform="matrix(1,0,0,1.2339824,20.592336,-94.484001)" /><radialGradient
       inkscape:collect="always"
       xlink:href="#linearGradient30"
       id="radialGradient31"
       cx="278.22699"
       cy="380.78925"
       fx="278.22699"
       fy="380.78925"
       r="256"
       gradientTransform="matrix(0.93709927,-0.7229928,0.29547054,0.38297094,-78.930739,388.32194)"
       gradientUnits="userSpaceOnUse" /><linearGradient
       inkscape:collect="always"
       xlink:href="#linearGradient23"
       id="linearGradient31"
       gradientUnits="userSpaceOnUse"
       gradientTransform="matrix(1,0,0,0.86851302,91.295661,57.778194)"
       x1="282.11249"
       y1="280.20816"
       x2="247.21317"
       y2="336.93912" /></defs><g
     inkscape:groupmode="layer"
     id="layer2"
     inkscape:label="Warstwa 2"
     style="display:inline"><rect
       style="fill:url(#linearGradient26);stroke:none;stroke-width:10.8397;stroke-linecap:square;stroke-linejoin:bevel;stroke-dasharray:none;stroke-dashoffset:2.9178;stroke-opacity:1"
       id="rect22"
       width="47.093403"
       height="126.22897"
       x="197.10216"
       y="248.89844" /><rect
       style="fill:url(#linearGradient28);stroke:none;stroke-width:11.9482;stroke-linecap:square;stroke-linejoin:bevel;stroke-dasharray:none;stroke-dashoffset:2.9178;stroke-opacity:1"
       id="rect23"
       width="47.093403"
       height="153.36299"
       x="267.80548"
       y="212.65227" /><rect
       style="fill:url(#linearGradient31);stroke:none;stroke-width:10.0239;stroke-linecap:square;stroke-linejoin:bevel;stroke-dasharray:none;stroke-dashoffset:2.9178;stroke-opacity:1"
       id="rect31"
       width="47.093403"
       height="107.94135"
       x="338.50882"
       y="273.94971" /><rect
       style="fill:url(#linearGradient24);fill-opacity:1;stroke:none;stroke-width:8.93664;stroke-linecap:square;stroke-linejoin:bevel;stroke-dasharray:none;stroke-dashoffset:2.9178;stroke-opacity:1"
       id="rect20"
       width="47.093403"
       height="85.79364"
       x="126.39777"
       y="289.33377" /><path
       id="path12"
       style="fill:#9c64ff;fill-opacity:1;fill-rule:nonzero;stroke:none;stroke-width:5;stroke-linecap:butt;stroke-linejoin:miter;stroke-dasharray:none;stroke-opacity:1"
       transform="translate(0,40.184345)"
       inkscape:path-effect="#path-effect14"
       inkscape:original-d="m 512,240.63173 -80.28889,77.71561 c -9.71451,9.40316 -45.13476,58.88444 -69.38076,57.20506 -24.24601,-1.67937 -157.48813,-27.16584 -189.45951,-7.98052 L 0,471.3079 V 435.91898 L 174.40978,283.89212 c 28.10698,-24.49986 161.15797,-2.11815 185.40398,-0.43878 24.246,1.67938 57.73608,9.3188 66.27596,-1.16268 L 512,176.8481 Z"
       d="m 512,240.63173 -80.28889,77.71561 c -10.88783,10.53887 -21.28655,21.56808 -32.0258,32.25832 -5.36962,5.34512 -10.93504,10.52903 -17.08438,14.95495 -6.14934,4.42592 -12.93674,8.08971 -20.27058,9.99179 -8.05461,2.08902 -16.56949,1.99072 -24.76818,0.56871 -8.19869,-1.42202 -16.12356,-4.13325 -23.82817,-7.27644 -15.40923,-6.28637 -30.21196,-14.18027 -46.16736,-18.91188 -15.9554,-4.7316 -33.04758,-6.04915 -49.32327,-2.57571 -16.27568,3.47343 -31.10246,11.65164 -45.37253,20.2148 L 0,471.3079 V 435.91898 L 174.40978,283.89212 c 13.12303,-11.43888 26.58607,-22.75478 42.08104,-30.68999 15.49497,-7.93522 32.85278,-12.36012 50.25986,-12.12435 17.40707,0.23577 34.59266,5.03989 50.17688,12.79836 15.58422,7.75847 29.60324,18.32443 42.8862,29.5772 4.96407,4.20536 9.88674,8.52307 15.47996,11.84617 5.59321,3.3231 11.91392,5.58801 18.41636,5.80072 6.50245,0.2127 13.02218,-1.6998 18.49148,-5.22313 5.46931,-3.52332 9.77871,-8.54268 13.88816,-13.58644 L 512,176.8481 Z"
       sodipodi:nodetypes="csssccssscc" /><path
       id="path18"
       style="fill:url(#radialGradient31);fill-rule:nonzero;stroke:none;stroke-width:5;stroke-linecap:butt;stroke-linejoin:miter;stroke-dasharray:none;stroke-opacity:1"
       transform="translate(0,40.184345)"
       inkscape:path-effect="#path-effect20"
       inkscape:original-d="m 512,240.63173 -80.28889,77.71561 c -9.71451,9.40316 -45.13476,58.88444 -69.38076,57.20506 -24.24601,-1.67937 -157.48813,-27.16584 -189.45951,-7.98052 L 0,471.3079 V 451.91898 L 174.40978,325.89212 c 30.2217,-21.83791 161.15797,5.88185 185.40398,7.56122 24.246,1.67938 57.01858,-19.30916 66.27596,-29.16268 L 512,212.8481 Z"
       d="m 512,240.63173 -80.28889,77.71561 c -10.88783,10.53887 -21.28655,21.56808 -32.0258,32.25832 -5.36962,5.34512 -10.93504,10.52903 -17.08438,14.95495 -6.14934,4.42592 -12.93674,8.08971 -20.27058,9.99179 -8.05461,2.08902 -16.56949,1.99072 -24.76818,0.56871 -8.19869,-1.42202 -16.12356,-4.13325 -23.82817,-7.27644 -15.40923,-6.28637 -30.21196,-14.18027 -46.16736,-18.91188 -15.9554,-4.7316 -33.04758,-6.04915 -49.32327,-2.57571 -16.27568,3.47343 -31.10246,11.65164 -45.37253,20.2148 L 0,471.3079 V 451.91898 L 174.40978,325.89212 c 13.44682,-9.71654 27.4074,-19.16009 43.18796,-24.27887 15.78056,-5.11878 32.89548,-5.76286 49.13888,-2.38946 16.2434,3.37341 31.42467,10.49922 46.38078,17.67856 14.9561,7.17934 30.23672,14.47533 46.69636,16.55099 12.52765,1.57981 25.53019,-0.18875 36.94389,-5.58924 11.4137,-5.40049 20.68624,-14.37085 29.33207,-23.57344 L 512,212.8481 Z"
       sodipodi:nodetypes="csssccssscc" /></g></svg>
